<svg width="20" height="20" viewBox="0 0 20 20" fill="none" xmlns="http://www.w3.org/2000/svg">
<path fill-rule="evenodd" clip-rule="evenodd" d="M6.36366 3.63633C6.22301 3.49567 6.03225 3.41666 5.83333 3.41666C5.63442 3.41666 5.44366 3.49567 5.303 3.63633L1.96967 6.96966C1.67678 7.26255 1.67678 7.73743 1.96967 8.03032C2.26256 8.32321 2.73744 8.32321 3.03033 8.03032L5.08333 5.97732V15.8333C5.08333 16.2475 5.41912 16.5833 5.83333 16.5833C6.24755 16.5833 6.58333 16.2475 6.58333 15.8333V5.97732L8.63634 8.03032C8.92923 8.32321 9.4041 8.32321 9.697 8.03032C9.98989 7.73743 9.98989 7.26255 9.697 6.96966L6.36366 3.63633ZM14.9167 14.0227V4.16666C14.9167 3.75244 14.5809 3.41666 14.1667 3.41666C13.7525 3.41666 13.4167 3.75244 13.4167 4.16666V14.0227L11.3637 11.9697C11.0708 11.6768 10.5959 11.6768 10.303 11.9697C10.0102 12.2626 10.0102 12.7374 10.303 13.0303L13.6364 16.3637C13.777 16.5043 13.9678 16.5833 14.1667 16.5833C14.3656 16.5833 14.5564 16.5043 14.697 16.3637L18.0304 13.0303C18.3233 12.7374 18.3233 12.2626 18.0304 11.9697C17.7375 11.6768 17.2626 11.6768 16.9697 11.9697L14.9167 14.0227Z" fill="#505759"/>
</svg>
