<svg width="20" height="20" viewBox="0 0 20 20" fill="none" xmlns="http://www.w3.org/2000/svg">
<path fill-rule="evenodd" clip-rule="evenodd" d="M13.5016 7.55922C13.7945 7.26633 13.7945 6.79146 13.5016 6.49856C13.2087 6.20567 12.7338 6.20567 12.441 6.49856L10.0001 8.93942L7.55921 6.49852C7.26631 6.20563 6.79144 6.20563 6.49855 6.49852C6.20565 6.79142 6.20565 7.26629 6.49855 7.55918L8.93944 10.0001L6.49866 12.4409C6.20576 12.7338 6.20576 13.2086 6.49866 13.5015C6.79155 13.7944 7.26642 13.7944 7.55932 13.5015L10.0001 11.0607L12.4408 13.5015C12.7337 13.7944 13.2086 13.7944 13.5015 13.5015C13.7944 13.2086 13.7944 12.7337 13.5015 12.4408L11.0608 10.0001L13.5016 7.55922Z" fill="#505759"/>
</svg>
