<svg width="20" height="20" viewBox="0 0 20 20" fill="none" xmlns="http://www.w3.org/2000/svg">
<path fill-rule="evenodd" clip-rule="evenodd" d="M13.9827 2.48167C14.4515 2.01312 15.0872 1.74991 15.75 1.74991C16.4131 1.74991 17.049 2.01331 17.5178 2.48217C17.9867 2.95103 18.2501 3.58693 18.2501 4.25C18.2501 4.91285 17.9869 5.54857 17.5183 6.01738L17.5178 6.01783L16.4592 7.08023C16.4319 7.12149 16.4001 7.16064 16.3637 7.19699C16.328 7.23267 16.2896 7.26401 16.2492 7.29101L10.5313 13.0294C10.3905 13.1706 10.1994 13.25 10 13.25H7.5C7.08579 13.25 6.75 12.9142 6.75 12.5V10C6.75 9.80062 6.82939 9.60945 6.97062 9.46872L12.7092 3.75065C12.7361 3.71028 12.7674 3.67196 12.803 3.63633C12.8393 3.60003 12.8784 3.56824 12.9196 3.54094L13.9822 2.48217L13.9827 2.48167ZM16.4562 4.95812L15.822 5.59462L14.4054 4.17801L15.0419 3.54377L15.0428 3.54283C15.2304 3.35527 15.4848 3.24991 15.75 3.24991C16.0152 3.24991 16.2696 3.35527 16.4572 3.54283C16.6447 3.73038 16.7501 3.98476 16.7501 4.25C16.7501 4.51524 16.6447 4.76961 16.4572 4.95717L16.4562 4.95812ZM8.25 10.3114L13.3428 5.23677L14.7632 6.65717L9.68856 11.75H8.25V10.3114ZM3.33337 15.9167C2.91916 15.9167 2.58337 16.2524 2.58337" fill="#9FA8AB"/>
</svg>
