<svg width="46" height="32" viewBox="0 0 46 32" fill="none" xmlns="http://www.w3.org/2000/svg">
<rect x="0.5" y="0.5" width="45" height="31" rx="5.5" fill="white"/>
<rect x="0.5" y="0.5" width="45" height="31" rx="5.5" stroke="#EBEDED"/>
<path fill-rule="evenodd" clip-rule="evenodd" d="M21.4105 20.704V16.7912H23.43C24.2575 16.7912 24.956 16.5139 25.5254 15.967L25.662 15.8284C26.7022 14.6961 26.6338 12.9322 25.5254 11.8847C24.9712 11.3301 24.2119 11.0297 23.43 11.0451H20.1881V20.704H21.4105ZM21.4106 15.6049V12.2312H23.4608C23.9012 12.2312 24.3188 12.4007 24.6302 12.7088C25.2908 13.3558 25.306 14.4341 24.6681 15.1043C24.3568 15.4355 23.9164 15.6203 23.4608 15.6049H21.4106ZM31.3638 14.6113C30.8399 14.1261 30.1262 13.8796 29.2228 13.8796C28.0612 13.8796 27.1881 14.3109 26.6111 15.1659L27.6892 15.8514C28.084 15.2661 28.623 14.9734 29.3063 14.9734C29.739 14.9734 30.1566 15.1351 30.4831 15.4278C30.8019 15.7051 30.9841 16.1056 30.9841 16.5293V16.8143C30.5134 16.5524 29.9213 16.4137 29.1924 16.4137C28.3421 16.4137 27.6588 16.614 27.1501 17.0222C26.6415 17.4305 26.3833 17.9696 26.3833 18.6552C26.3681 19.2791 26.6339 19.8721 27.1046 20.2727C27.5829 20.704 28.1903 20.9197 28.9039 20.9197C29.7466 20.9197 30.4147 20.5423 30.9234 19.7874H30.9766V20.704H32.1457V16.6294C32.1457 15.7744 31.8876 15.0966 31.3638 14.6113ZM28.0462 19.487C27.7956 19.3022 27.6438 19.0018 27.6438 18.6783C27.6438 18.3163 27.8108 18.0159 28.1373 17.7771C28.4714 17.5383 28.8891 17.4151 29.3826 17.4151C30.066 17.4074 30.5976 17.5614 30.9772 17.8695C30.9772 18.3933 30.7722 18.8477 30.3698 19.2329C30.0053 19.6026 29.5117 19.8105 28.9954 19.8105C28.6537 19.8183 28.3196 19.7027 28.0462 19.487ZM34.7726 23.6078L38.8572 14.0953H37.5286L35.6381 18.84H35.6154L33.6794 14.0953H32.3508L35.0308 20.2804L33.5123 23.6078H34.7726Z" fill="#3C4043"/>
<path d="M17.1905 15.9439C17.1905 15.5665 17.1602 15.1891 17.0994 14.8193H11.9444V16.9529H14.8977C14.7762 17.6384 14.3815 18.2546 13.8045 18.6398V20.0262H15.5658C16.5984 19.0634 17.1905 17.6385 17.1905 15.9439Z" fill="#4285F4"/>
<path d="M11.9446 21.3665C13.4175 21.3665 14.6626 20.8736 15.5661 20.0263L13.8047 18.6398C13.3112 18.9787 12.6811 19.1713 11.9446 19.1713C10.5173 19.1713 9.31016 18.1931 8.87741 16.8837H7.06289V18.3163C7.98913 20.188 9.87957 21.3665 11.9446 21.3665Z" fill="#34A853"/>
<path d="M8.8776 16.8836C8.6498 16.1981 8.6498 15.4509 8.8776 14.7577V13.3328H7.0628C6.28069 14.8964 6.28069 16.745 7.0628 18.3086L8.8776 16.8836Z" fill="#FBBC04"/>
<path d="M11.9446 12.4701C12.7266 12.4547 13.4782 12.7551 14.04 13.302L15.604 11.7152C14.6095 10.7755 13.3036 10.2595 11.9446 10.2749C9.87957 10.2749 7.98913 11.4611 7.06289 13.3328L8.87741 14.7654C9.31016 13.4483 10.5173 12.4701 11.9446 12.4701Z" fill="#EA4335"/>
</svg>
