<svg width="20" height="20" viewBox="0 0 20 20" fill="none" xmlns="http://www.w3.org/2000/svg">
<path fill-rule="evenodd" clip-rule="evenodd" d="M5.13292 5.51035C5.88407 4.70142 7.31204 4.69812 8.22946 5.54019C9.10454 6.42538 9.07235 7.76054 8.23966 8.53375C7.32223 9.38564 5.96984 9.38455 5.21626 8.57301C4.3732 7.6651 4.34291 6.36113 5.13292 5.51035ZM4.03373 4.48967C5.44527 2.96956 7.83994 3.13497 9.25673 4.44707L9.27017 4.45971L9.28372 4.47308C10.7286 5.92155 10.7567 8.24345 9.26033 9.63294C7.84442 10.9477 5.53015 11.1155 4.11707 9.59368C2.79345 8.16825 2.65708 5.97222 4.03373 4.48967ZM2.41667 15.8333C2.41667 14.4142 3.58089 13.25 5 13.25H8.33334C9.75246 13.25 10.9167 14.4142 10.9167 15.8333C10.9167 16.2475 11.2525 16.5833 11.6667 16.5833C12.0809 16.5833 12.4167 16.2475 12.4167 15.8333C12.4167 13.5858 10.5809 11.75 8.33334 11.75H5C2.75246 11.75 0.916672 13.5858 0.916672 15.8333C0.916672 16.2475 1.25246 16.5833 1.66667 16.5833C2.08089 16.5833 2.41667 16.2475 2.41667 15.8333ZM12.5833 11.6667C12.5833 11.2524 12.9191 10.9167 13.3333 10.9167H15.8333C17.6642 10.9167 19.0833 12.3358 19.0833 14.1667C19.0833 14.5809 18.7475 14.9167 18.3333 14.9167C17.9191 14.9167 17.5833 14.5809 17.5833 14.1667C17.5833 13.1642 16.8358 12.4167 15.8333 12.4167H13.3333C12.9191 12.4167 12.5833 12.0809 12.5833 11.6667ZM13.697 6.11367C14.1359 5.67482 15.0023 5.63376 15.5669 6.12779C16.1091 6.68453 16.0634 7.5089 15.5816 7.94254C14.9776 8.48614 14.1313 8.45065 13.7241 7.99828C13.1805 7.39428 13.216 6.54794 13.6684 6.14081C13.6782 6.13202 13.6877 6.12297 13.697 6.11367ZM12.6504 5.03907C13.7078 3.99771 15.4817 4.03785 16.5798 5.02111C16.5864 5.02702 16.593 5.03306 16.5995 5.03925C16.6061 5.04542 16.6124 5.05168 16.6187 5.05803C17.7236 6.16836 17.764 7.99639 16.5851 9.05748C15.5224 10.0139 13.7021 10.216 12.6092 9.00173C11.6566 7.94334 11.4523 6.13334 12.6504 5.03907Z" fill="#29CC9B"/>
</svg>
